<?xml version="1.0" standalone="no"?>
<!DOCTYPE svg PUBLIC "-//W3C//DTD SVG 20010904//EN"
 "http://www.w3.org/TR/2001/REC-SVG-20010904/DTD/svg10.dtd">
<svg version="1.0" xmlns="http://www.w3.org/2000/svg"
 width="300.000000pt" height="300.000000pt" viewBox="0 0 300.000000 300.000000"
 preserveAspectRatio="xMidYMid meet">
<metadata>
Created by potrace 1.11, written by Peter Selinger 2001-2013
</metadata>
<g transform="translate(0.000000,300.000000) scale(0.100000,-0.100000)"
fill="#000000" stroke="none">
<path d="M1480 2508 l-65 -20 -2 -71 c-2 -54 -6 -75 -19 -84 -9 -7 -14 -19
-11 -28 8 -20 4 -19 -37 9 -30 20 -58 28 -181 52 -10 2 -37 6 -60 9 -63 9
-187 26 -215 30 -14 2 -45 6 -70 10 -25 3 -56 8 -70 10 -23 4 -73 11 -137 19
-15 2 -46 7 -68 10 -88 13 -192 27 -234 33 -50 6 -50 0 5 -57 43 -45 89 -92
103 -105 6 -5 23 -25 37 -42 14 -18 31 -33 37 -33 7 0 29 -18 50 -40 20 -22
45 -40 53 -40 9 0 34 -16 55 -35 22 -19 37 -35 35 -35 -6 0 -420 -88 -496
-106 -36 -8 -74 -16 -85 -18 -74 -12 -95 -20 -95 -33 0 -21 44 -61 77 -69 15
-4 36 -15 46 -25 10 -10 30 -22 45 -25 15 -4 50 -20 78 -36 28 -15 58 -28 68
-28 9 0 35 -9 56 -20 22 -11 61 -23 87 -27 27 -3 68 -15 92 -25 24 -10 64 -18
90 -17 25 0 64 -6 87 -14 38 -14 190 -17 211 -4 5 3 27 8 49 11 23 4 55 11 72
16 44 12 40 5 -9 -21 -23 -11 -67 -47 -99 -79 -84 -86 -126 -102 -345 -140
-152 -26 -203 -43 -258 -85 -80 -61 -102 -157 -49 -215 23 -26 36 -31 85 -35
52 -3 58 -2 52 13 -30 70 -30 71 -9 98 15 20 43 35 109 55 65 20 123 49 210
104 66 41 123 75 127 75 14 0 16 -18 19 -161 4 -164 -1 -179 -57 -179 -34 0
-54 -20 -54 -56 0 -10 -11 -29 -24 -43 -21 -23 -33 -68 -35 -132 -1 -16 -28
-49 -60 -71 -18 -12 -27 -34 -30 -71 -1 -4 -10 -3 -20 3 -11 5 -25 10 -31 10
-10 0 -70 -86 -70 -102 0 -17 55 -7 97 18 50 29 63 26 39 -7 -10 -16 -12 -27
-5 -40 11 -21 -5 -35 -37 -31 -17 3 -25 -7 -43 -54 -12 -31 -19 -59 -16 -62 3
-3 22 0 44 6 51 16 125 101 135 157 4 22 13 60 21 85 7 25 16 61 19 81 4 20
20 57 37 82 25 37 40 49 82 62 67 22 207 96 258 135 24 20 50 56 71 98 18 37
43 84 55 105 l24 38 122 -8 c67 -4 187 -7 267 -7 166 0 260 20 367 79 36 20
75 33 95 33 36 0 261 60 319 85 20 9 39 14 42 11 9 -9 -14 -88 -31 -107 -9
-11 -17 -29 -17 -41 0 -22 -21 -29 -42 -13 -13 9 -33 -16 -58 -76 l-15 -38 27
7 c50 12 67 21 103 53 19 17 38 31 42 31 11 0 25 31 32 70 3 19 8 46 11 60 3
14 8 39 11 57 4 23 14 34 34 42 25 8 32 6 53 -15 34 -34 110 -148 143 -217 23
-46 35 -60 57 -64 29 -6 30 -11 16 -62 -4 -12 110 -85 120 -76 9 9 -22 94 -43
116 -13 14 -26 37 -29 52 -4 14 -25 43 -47 63 -42 39 -121 156 -159 237 -23
48 -46 62 -92 55 -25 -3 -26 1 -14 40 5 18 -1 30 -31 57 -21 19 -46 35 -55 35
-10 0 -70 -25 -134 -55 -65 -30 -121 -53 -125 -50 -7 4 -13 28 -26 105 -9 49
-17 65 -40 85 -13 11 -33 47 -45 80 -42 122 -89 179 -224 270 -47 31 -88 61
-91 67 -17 28 94 92 156 90 80 -4 124 49 93 112 l-15 32 -141 2 c-78 1 -198 4
-267 6 -103 3 -137 0 -190 -16z"/>
</g>
</svg>
