<?xml version="1.0" encoding="utf-8"?>
<!-- Generator: Adobe Illustrator 20.1.0, SVG Export Plug-In . SVG Version: 6.00 Build 0)  -->
<svg version="1.1"
	 id="Layer_1" inkscape:version="0.91 r13725" sodipodi:docname="footer-logos.svg" xmlns:cc="http://creativecommons.org/ns#" xmlns:dc="http://purl.org/dc/elements/1.1/" xmlns:inkscape="http://www.inkscape.org/namespaces/inkscape" xmlns:rdf="http://www.w3.org/1999/02/22-rdf-syntax-ns#" xmlns:sodipodi="http://sodipodi.sourceforge.net/DTD/sodipodi-0.dtd" xmlns:svg="http://www.w3.org/2000/svg"
	 xmlns="http://www.w3.org/2000/svg" xmlns:xlink="http://www.w3.org/1999/xlink" x="0px" y="0px" width="2200px" height="60px"
	 viewBox="0 0 2200 60" style="enable-background:new 0 0 2200 60;" xml:space="preserve">
<style type="text/css">
	.st0{display:none;}
	.st1{display:inline;fill:#FF0000;stroke:#000000;stroke-miterlimit:10;}
	.st2{display:inline;}
	.st3{fill:#FFFFFF;}
	.st4{fill:#B4B4B4;}
	.st5{fill:#FAFAFA;}
	.st6{fill:#999999;}
</style>
<sodipodi:namedview  bordercolor="#666666" borderopacity="1" gridtolerance="10" guidetolerance="10" id="namedview182" inkscape:current-layer="Layer_1" inkscape:cx="2124.3763" inkscape:cy="36.796827" inkscape:pageopacity="0" inkscape:pageshadow="2" inkscape:window-height="1040" inkscape:window-maximized="1" inkscape:window-width="2288" inkscape:window-x="1948" inkscape:window-y="39" inkscape:zoom="11.313709" objecttolerance="10" pagecolor="#ffffff" showgrid="false">
	</sodipodi:namedview>
<g id="Background" class="st0">
	<rect id="rect6" x="1434.6" y="653.8" class="st1" width="2219.8" height="270.4"/>
</g>
<g id="Old_Logo_Bakup" class="st0">
	<g id="g87" class="st2">
		<title  id="title89">Layer 1</title>
		<g id="svg_102_1_">
			<g id="svg_101_1_" transform="matrix(2.4581190036483416,0,0,2.4298627055292408,-4189.752965277749,-2554.8362307960406) ">
				<g id="svg_100_1_">
					<path id="svg_99_1_" class="st3" d="M2920.1,1360.6h2.7l1.5,5l1.5-5h2.6v8.2h-1.7v-5.8l-1.6,5.8h-1.7l-1.6-5.8v5.8h-1.7V1360.6
						L2920.1,1360.6z M2943.2,1362.3h1.7v-0.3v-1.4h-1.7V1362.3L2943.2,1362.3z M2943.2,1368.8h1.7v-0.4v-5.6h-1.7V1368.8
						L2943.2,1368.8z M2945.8,1368.8h1.7v-0.3v-7.9h-1.7V1368.8L2945.8,1368.8z M2939.3,1367.3c-0.8,0-1.5-0.7-1.5-1.5
						s0.7-1.5,1.5-1.5s1.5,0.7,1.5,1.5C2940.7,1366.6,2940.1,1367.3,2939.3,1367.3L2939.3,1367.3z M2937.8,1368.8v-0.5
						c0.4,0.5,1,0.7,1.6,0.7c1.7,0,3-1.4,3-3.1s-1.3-3.1-3-3.1c-0.6,0-1.2,0.2-1.6,0.6v-2.8h-1.7v8.2L2937.8,1368.8L2937.8,1368.8z
						 M2932.2,1362.7c-1.8,0-3.2,1.4-3.2,3.2c0,1.8,1.4,3.2,3.2,3.2s3.2-1.4,3.2-3.2S2933.9,1362.7,2932.2,1362.7L2932.2,1362.7z
						 M2932.2,1368.3c-1.4,0-2.5-1.1-2.5-2.5s1.1-2.5,2.5-2.5s2.5,1.1,2.5,2.5C2934.6,1367.2,2933.5,1368.3,2932.2,1368.3
						L2932.2,1368.3z M2932.2,1363.8c-1.1,0-2,0.9-2,2s0.9,2,2,2s2-0.9,2-2S2933.3,1363.8,2932.2,1363.8L2932.2,1363.8z
						 M2932.2,1367.2c-0.8,0-1.4-0.6-1.4-1.4s0.6-1.4,1.4-1.4c0.7,0,1.4,0.6,1.4,1.4C2933.6,1366.6,2932.9,1367.2,2932.2,1367.2
						L2932.2,1367.2z"/>
				</g>
			</g>
		</g>
		<g id="svg_94_1_">
			<g id="svg_97_1_" transform="matrix(2.4581190036483416,0,0,2.4298627055292408,-4189.752965277749,-2554.8362307960406) ">
				<g id="svg_96_1_">
					<path id="svg_95_1_" class="st4" d="M2879.2,1360.6h2.7l1.5,5l1.5-5h2.6v8.2h-1.7v-5.8l-1.6,5.8h-1.7l-1.6-5.8v5.8h-1.7V1360.6
						L2879.2,1360.6z M2902.3,1362.3h1.7v-0.3v-1.4h-1.7V1362.3L2902.3,1362.3z M2902.3,1368.8h1.7v-0.4v-5.6h-1.7V1368.8
						L2902.3,1368.8z M2904.9,1368.8h1.7v-0.3v-7.9h-1.7V1368.8L2904.9,1368.8z M2898.4,1367.3c-0.8,0-1.5-0.7-1.5-1.5
						s0.7-1.5,1.5-1.5s1.5,0.7,1.5,1.5C2899.8,1366.6,2899.2,1367.3,2898.4,1367.3L2898.4,1367.3z M2896.9,1368.8v-0.5
						c0.4,0.5,1,0.7,1.6,0.7c1.7,0,3-1.4,3-3.1s-1.3-3.1-3-3.1c-0.6,0-1.2,0.2-1.6,0.6v-2.8h-1.7v8.2L2896.9,1368.8L2896.9,1368.8z
						 M2891.3,1362.7c-1.8,0-3.2,1.4-3.2,3.2c0,1.8,1.4,3.2,3.2,3.2s3.2-1.4,3.2-3.2S2893,1362.7,2891.3,1362.7L2891.3,1362.7z
						 M2891.3,1368.3c-1.4,0-2.5-1.1-2.5-2.5s1.1-2.5,2.5-2.5s2.5,1.1,2.5,2.5C2893.7,1367.2,2892.6,1368.3,2891.3,1368.3
						L2891.3,1368.3z M2891.3,1363.8c-1.1,0-2,0.9-2,2s0.9,2,2,2s2-0.9,2-2S2892.4,1363.8,2891.3,1363.8L2891.3,1363.8z
						 M2891.3,1367.2c-0.8,0-1.4-0.6-1.4-1.4s0.6-1.4,1.4-1.4c0.7,0,1.4,0.6,1.4,1.4S2892,1367.2,2891.3,1367.2L2891.3,1367.2z"/>
				</g>
			</g>
		</g>
		<g id="svg_1_1_">
			<path id="svg_2_1_" class="st5" d="M1619.9,744.1c-5.2,0-7.9,2.7-8.9,3.5V745h-7v29h8v-16c0-4.1,2.1-6.3,5.5-6.3
				c3.5,0,5.5,2.3,5.5,6.3v16h8v-18.3C1631,748.6,1626.1,744.1,1619.9,744.1L1619.9,744.1L1619.9,744.1z"/>
			<path id="svg_3_1_" class="st5" d="M1700.8,744.1c-8.9,0-15.7,6.9-15.7,15.3c0,8.4,6.8,15.3,15.7,15.3c8.9,0,15.7-6.9,15.7-15.3
				S1709.7,744.1,1700.8,744.1z M1700.8,766.8c-4.2,0-7.3-3.3-7.3-7.4c0-4.1,3-7.4,7.3-7.4c4.2,0,7.3,3.3,7.3,7.4
				C1708.1,763.5,1705.1,766.8,1700.8,766.8z"/>
			<path id="svg_4_1_" class="st5" d="M1582.8,744.1c-8.9,0-15.7,6.9-15.7,15.3c0,8.4,6.8,15.3,15.7,15.3c8.9,0,15.7-6.9,15.7-15.3
				S1591.7,744.1,1582.8,744.1z M1582.8,766.8c-4.2,0-7.3-3.3-7.3-7.4c0-4,3-7.4,7.3-7.4c4.2,0,7.3,3.3,7.3,7.4
				C1590.1,763.5,1587.1,766.8,1582.8,766.8z"/>
			<rect id="svg_5_1_" x="1758" y="745" class="st5" width="8" height="29"/>
			<rect id="svg_6_1_" x="1758" y="734" class="st5" width="8" height="7"/>
			<rect id="svg_7_1_" x="1774" y="734" class="st5" width="8" height="40"/>
			<path id="svg_8_1_" class="st5" d="M1739,744.1c-5.9,0-9,2.7-9,3V734h-8v40h8v0.1v-2.3c0.6,0.5,3.2,2.9,8.9,2.9
				c7.4,0,14.3-6.6,14.3-15.3C1753.1,750.7,1746.7,744.1,1739,744.1L1739,744.1L1739,744.1z M1736.9,766.8c-4.2,0-7.4-3.2-7.4-7.3
				c0-4.2,3.2-7.3,7.4-7.3s7.3,3.2,7.3,7.3S1741.1,766.8,1736.9,766.8z"/>
			<polygon id="svg_9_1_" class="st5" points="1569.7,745 1559.6,745 1546.5,761.6 1540.9,756.1 1555.4,738 1545.3,738 
				1535.4,750.6 1530,745 1518,745 1530.1,757.1 1516.4,774 1526.5,774 1535.6,762.4 1541.2,768.5 1528.3,785 1538.4,785 
				1546.7,773.8 1562.2,789 1574.5,789 1552.1,766.9 			"/>
			<polygon id="svg_10_1_" class="st5" points="1488,774 1515,774 1515,767 1496,767 1496,757 1513,757 1513,750 1496,750 1496,741 
				1515,741 1515,734 1488,734 			"/>
			<polygon id="svg_11_1_" class="st5" points="1659.4,763 1659.1,763 1652.4,734 1639,734 1639,774 1647,774 1647,744 1647,744 
				1654.3,774 1663.8,774 1671.2,744 1671,744 1671,774 1680,774 1680,734 1666.3,734 			"/>
		</g>
		<g id="svg_12_1_">
			<path id="svg_13_1_" class="st6" d="M1919.9,744.1c-5.2,0-7.9,2.7-8.9,3.5V745h-7v29h8v-16c0-4.1,2.1-6.3,5.5-6.3
				c3.5,0,5.5,2.3,5.5,6.3v16h8v-18.3C1931,748.6,1926.1,744.1,1919.9,744.1L1919.9,744.1L1919.9,744.1z"/>
			<path id="svg_14_1_" class="st6" d="M2000.8,744.1c-8.9,0-15.7,6.9-15.7,15.3c0,8.4,6.8,15.3,15.7,15.3c8.9,0,15.7-6.9,15.7-15.3
				S2009.7,744.1,2000.8,744.1z M2000.8,766.8c-4.2,0-7.3-3.3-7.3-7.4c0-4.1,3-7.4,7.3-7.4c4.2,0,7.3,3.3,7.3,7.4
				C2008.1,763.5,2005.1,766.8,2000.8,766.8z"/>
			<path id="svg_15_1_" class="st6" d="M1882.8,744.1c-8.9,0-15.7,6.9-15.7,15.3c0,8.4,6.8,15.3,15.7,15.3c8.9,0,15.7-6.9,15.7-15.3
				S1891.7,744.1,1882.8,744.1z M1882.8,766.8c-4.2,0-7.3-3.3-7.3-7.4c0-4,3-7.4,7.3-7.4c4.2,0,7.3,3.3,7.3,7.4
				C1890.1,763.5,1887.1,766.8,1882.8,766.8z"/>
			<rect id="svg_16_1_" x="2058" y="745" class="st6" width="8" height="29"/>
			<rect id="svg_17_1_" x="2058" y="734" class="st6" width="8" height="7"/>
			<rect id="svg_18_1_" x="2074" y="734" class="st6" width="8" height="40"/>
			<path id="svg_19_1_" class="st6" d="M2039,744.1c-5.9,0-9,2.7-9,3V734h-8v40h8v0.1v-2.3c0.6,0.5,3.2,2.9,8.9,2.9
				c7.4,0,14.3-6.6,14.3-15.3C2053.1,750.7,2046.7,744.1,2039,744.1L2039,744.1L2039,744.1z M2036.9,766.8c-4.2,0-7.4-3.2-7.4-7.3
				c0-4.2,3.2-7.3,7.4-7.3s7.3,3.2,7.3,7.3S2041.1,766.8,2036.9,766.8z"/>
			<polygon id="svg_20_1_" class="st6" points="1869.7,745 1859.6,745 1846.5,761.6 1840.9,756.1 1855.4,738 1845.3,738 
				1835.4,750.6 1830,745 1818,745 1830.1,757.1 1816.4,774 1826.5,774 1835.6,762.4 1841.2,768.5 1828.3,785 1838.4,785 
				1846.7,773.8 1862.2,789 1874.5,789 1852.1,766.9 			"/>
			<polygon id="svg_21_1_" class="st6" points="1788,774 1815,774 1815,767 1796,767 1796,757 1813,757 1813,750 1796,750 1796,741 
				1815,741 1815,734 1788,734 			"/>
			<polygon id="svg_22_1_" class="st6" points="1959.4,763 1959.1,763 1952.4,734 1939,734 1939,774 1947,774 1947,744 1947,744 
				1954.3,774 1963.8,774 1971.2,744 1971,744 1971,774 1980,774 1980,734 1966.3,734 			"/>
		</g>
		<g id="svg_23_1_">
			<path id="svg_24_1_" class="st6" d="M2197.6,752.9c-4.3,0-6.6,2.2-7.6,2.9V754h-6v24h7v-13.6c0-3.4,1.7-5.2,4.5-5.2
				c2.9,0,4.5,1.9,4.5,5.2V778h7v-15.4C2207,756.7,2202.7,752.9,2197.6,752.9z"/>
			<path id="svg_25_1_" class="st6" d="M2264.6,752.9c-7.4,0-13,5.7-13,12.7s5.6,12.7,13,12.7s13-5.7,13-12.7
				S2272,752.9,2264.6,752.9z M2264.6,771.8c-3.5,0-6-2.8-6-6.1c0-3.4,2.5-6.1,6-6.1s6,2.8,6,6.1
				C2270.7,769,2268.1,771.8,2264.6,771.8z"/>
			<path id="svg_26_1_" class="st6" d="M2166.6,752.9c-7.4,0-13,5.7-13,12.7s5.6,12.7,13,12.7s13-5.7,13-12.7
				C2179.7,758.6,2174,752.9,2166.6,752.9z M2166.7,771.8c-3.5,0-6-2.8-6-6.1c0-3.4,2.5-6.1,6-6.1s6,2.8,6,6.1
				S2170.2,771.8,2166.7,771.8z"/>
			<rect id="svg_27_1_" x="2312" y="754" class="st6" width="7" height="24"/>
			<rect id="svg_28_1_" x="2312" y="745" class="st6" width="7" height="6"/>
			<rect id="svg_29_1_" x="2325" y="745" class="st6" width="7" height="33"/>
			<path id="svg_30_1_" class="st6" d="M2296.4,752.9c-4.9,0-7.4,2.2-7.4,2.5V745h-7v33h7v-0.2l-0.1-1.9c0.5,0.4,2.6,2.4,7.3,2.4
				c6.1,0,11.9-5.5,11.9-12.7S2302.8,752.9,2296.4,752.9L2296.4,752.9L2296.4,752.9z M2294.6,771.7c-3.5,0-6.1-2.7-6.1-6.1
				c0-3.5,2.7-6.1,6.1-6.1c3.5,0,6.1,2.7,6.1,6.1C2300.7,769.1,2298,771.7,2294.6,771.7z"/>
			<polygon id="svg_31_1_" class="st6" points="2155.8,754 2147.4,754 2136.6,767.6 2131.9,763 2143.9,748 2135.6,748 2127.4,758.6 
				2122.9,754 2112.9,754 2123,764 2111.6,778 2120,778 2127.5,768.3 2132.2,773.3 2121.4,787 2129.8,787 2136.7,778 2149.6,791 
				2159.7,791 2141.2,772.4 			"/>
			<polygon id="svg_32_1_" class="st6" points="2088,778 2110,778 2110,772 2095,772 2095,764 2109,764 2109,758 2095,758 2095,751 
				2110,751 2110,745 2088,745 			"/>
			<polygon id="svg_33_1_" class="st6" points="2230.2,769 2230,769 2224.4,745 2213,745 2213,778 2220,778 2220,753 2220,753 
				2226,778 2233.9,778 2240.1,753 2240,753 2240,778 2247,778 2247,745 2235.9,745 			"/>
		</g>
		<path id="svg_36_1_" class="st6" d="M2735,763.4c4.8,0,8.3-3.8,8.3-9.1c0-5-3.5-8.9-8.4-8.9c-4.5,0-8.2,3.7-8.2,9
			C2726.7,759.8,2730.4,763.4,2735,763.4z M2735.2,749.4c2.7,0,3.7,2.7,3.7,4.7c0,3.1-1.3,5.4-3.6,5.4c-2.8,0-4-2.1-4-5.4
			C2731.2,752,2732,749.4,2735.2,749.4z"/>
		<path id="svg_37_1_" class="st6" d="M2690.6,762.9c0,0-0.1,0.2,0,0.2h12.5c0.1,0-0.1-0.3-0.1-0.3s0-3.9,0-4s0,0.3-0.1,0.3
			c-0.8,0.3-3.2,0.6-3.2,0.6h-4.2c0,0-0.1-0.3-0.1-0.5s0-2.3,0-2.5s0.2-0.3,0.2-0.3h7.5c0.1,0,0-0.1,0-0.1v-3.7c0,0,0.1-0.1,0-0.1
			h-7.6c0,0-0.1,0-0.1-0.2s0-2.1,0-2.3s0.2-0.2,0.2-0.2h4.3c0,0,2.2,0,3.2,0.2c0.1,0,0.1,0,0.1,0v-4c0,0,0.1-0.1,0-0.1
			s-12.4,0-12.5,0s0.1,0.1,0.1,0.1c0.1,0.2,0.4,1.1,0.4,2.7v11.2C2691,761.3,2690.7,762.8,2690.6,762.9L2690.6,762.9z"/>
		<path id="svg_38_1_" class="st6" d="M2744.8,762.9c0,0-0.1,0.2,0,0.2h0.1h3.7h0.1c0.1,0,0-0.2,0-0.2c-0.1-0.2-0.1-1.1-0.2-3
			c0,0,0-6.3,0-6.6l0,0l5.5,9.5v0.1v0.1h4.3l0.2-0.1l0.2-0.1c0,0,0-12.5,0-14.2c0-2.3,0-2.3,0.1-2.4c0,0-0.1,0.2-0.2,0.2h-0.1h-3.9
			h-0.1c-0.1,0,0-0.2,0-0.2c0.1,0.2,0.3,0.3,0.3,2.5c0,1.3,0,6.5,0,6.5l0,0l-5.3-9.4v0.3v0.3c-0.2,0-4.8,0-4.8,0c-0.1,0,0-0.2,0-0.2
			c0.1,0.2,0.2-0.1,0.2,3v10.6C2745,762.2,2745,762.6,2744.8,762.9L2744.8,762.9z"/>
		<path id="svg_39_1_" class="st6" d="M2703.8,746C2703.9,746,2703.9,746.1,2703.8,746c0.2,0.2,0.2,0.2,0.4,0.3
			c0.8,0.8,2.2,2.2,2.2,2.2l3.9,4.5l0,0c0,0,0,0,0,0.1c0,0-0.1,0.1-0.2,0.3c-0.3,0.5-4.4,7-4.4,7s-0.8,1.1-1,1.5
			c-0.4,0.6-0.7,0.9-0.7,0.9s0,0.1,0,0.2c0,0,0,0.1,0.1,0.1h0.1c0,0,4.4-0.1,4.6-0.1v-0.1l0,0c0.2-0.3,4.1-6.5,4.2-6.6
			c0.1-0.1,0.1-0.1,0.1,0l2.3,2.6c0.1,0,0.1,0.1,0,0.1c0,0-3.6,5.8-4.8,7.6c-0.2,0.3-0.8,1.2-1.3,1.7v0.2v0.2c0,0,4.5,0,4.7,0v-0.1
			v-0.1c0.2-0.3,3.9-6.3,3.9-6.3c0.1-0.2,0.1-0.2,0.2,0l7.5,8.5v0.1v0.1h6v-0.2v-0.1c0,0,0-0.1-0.1-0.1c-1.2-1.2-1.6-1.6-2.5-2.7
			c0,0-8.4-9.6-8.5-9.7c0-0.1,0-0.1,0-0.1s6.2-9.9,6.4-10.3c0.1-0.1,0.6-1,0.8-1.1c0.2-0.3,0.4-0.5,0.4-0.5s0,0.3,0,0.2
			c0,0,0,0.3-0.1,0.3h-4.5v-0.3v-0.1l-5.6,8.8c-0.1,0.1-0.1,0-0.1,0l-2.3-2.6c0,0,0,0,0-0.1l5-8c0.3-0.5,0.6-0.9,0.9-1.2l0.1-0.1
			c0,0,0,0,0-0.1c0,0,0,0-0.1,0c0,0-4.5,0-4.6,0l0,0l0,0c-0.2,0.3-3.9,6.3-3.9,6.3s0,0-0.1,0c-0.1-0.1-2.8-3.1-2.8-3.1v0.3v0.3h-6.1
			v-0.3v-0.1C2703.8,746.2,2703.8,746,2703.8,746L2703.8,746L2703.8,746L2703.8,746z"/>
		<g id="svg_40_1_">
			<path id="svg_41_1_" class="st6" d="M3093,761.7c0-9.6,12-17.3,26.7-17.3c14.8,0,26.7,7.8,26.7,17.3s-12,17.3-26.7,17.3
				S3093,771.3,3093,761.7L3093,761.7z M3119.8,783.8c17.6,0,31.8-9.9,31.8-22.2s-14.2-22.2-31.8-22.2s-31.8,9.9-31.8,22.2
				C3088,773.9,3102.2,783.8,3119.8,783.8L3119.8,783.8z"/>
			<path id="svg_42_1_" class="st6" d="M3109.1,751.7l-0.2,3.1c-1.3-0.3-2.7-1.1-4.1-0.4c-1,0.5-1,1.7-0.7,2.5
				c0.8,1.4,2.7,1.2,4.2,1.2c0,0.9,0,1.8,0,2.7c-0.9,0-1.9,0-2.8,0.3c-0.4,0.1-1,0.4-1.2,0.6c-0.3,0.3-0.5,0.8-0.5,1.2
				s0,0.8,0.2,1.1c1.1,1.5,3.3,0.7,4.7,0.4l0.4,3.2c-1.8,0.8-4.1,1.1-6.2,0.5c-0.6-0.2-1.2-0.4-1.7-0.8c-0.7-0.6-1.3-1.3-1.6-2.1
				c-0.4-0.9-0.4-1.9-0.2-3c0.3-1.3,1.4-2.3,2.6-2.8c-1.2-0.7-1.9-1.5-2.3-2.6c-0.2-0.8-0.2-1.6,0.1-2.4c0.1-0.5,0.2-0.8,0.6-1.4
				c0.5-0.8,1.7-1.5,2.7-1.8c1.4-0.4,3.1-0.4,4.5,0C3108.3,751.3,3108.5,751.4,3109.1,751.7L3109.1,751.7z M3138.1,754.8
				c-2-0.2-4.8-0.5-6,1.8c-1.4,2.6-1.4,6.5-0.3,9.3c0.6,1.2,1.8,2,3,2.3c2.2,0.4,4.7,0.1,6-1.9c1.4-2.7,1.5-6.7,0.1-9.4
				C3140.4,755.7,3139.3,754.9,3138.1,754.8L3138.1,754.8z M3138.1,759c0.5,1.4,0.5,3.7,0,5c-0.5,1-1.3,1.2-2.1,1
				c-0.4-0.2-0.8-0.6-1-1.2c-0.4-1.4-0.4-3.7,0.1-5c0.4-1.1,1.4-1,2.1-0.9C3137.6,758,3137.9,758.4,3138.1,759L3138.1,759z
				 M3112.7,755c-1.6,0.8-2.3,2.3-2.2,4.1c0,2.8,3.4,2.9,5.1,4.6c0.3,0.5,0,1.2-0.5,1.3c-1.4,0.7-3.2-0.4-4.5-1.1l0.2,3.4
				c1.9,0.9,4.9,1.3,6.8,0.1c1.3-0.8,2-2.1,2-3.5c0-3.1-3.4-3.4-5.4-4.7c-0.3-0.1-0.2-0.6-0.2-0.8c0.1-0.3,0.2-0.5,0.5-0.6
				c1.7-0.5,3.2,0.3,4.5,1l-0.1-3.3C3117.1,754.8,3114.7,754.2,3112.7,755L3112.7,755L3112.7,755L3112.7,755z M3123.1,755
				c-1.6,0.8-2.3,2.3-2.2,4.1c0,2.8,3.4,2.9,5.1,4.6c0.3,0.5,0,1.2-0.5,1.3c-1.4,0.7-3.1-0.4-4.4-1.1l0.1,3.4
				c1.9,0.9,4.9,1.3,6.8,0.1c1.3-0.8,2-2.1,2-3.5c0-3.1-3.4-3.5-5.4-4.7c-0.2-0.2-0.2-0.6-0.2-0.8c0.1-0.2,0.3-0.5,0.5-0.6
				c1.7-0.5,3.1,0.3,4.4,1l-0.1-3.3C3127.5,754.8,3125.1,754.2,3123.1,755L3123.1,755z"/>
		</g>
		<g id="svg_43_1_">
			<g id="svg_44_1_">
				<g id="svg_45_1_">
					<path id="svg_46_1_" class="st6" d="M3330.2,740c-2.8,0-5.1-0.1-7.4,0.1c-0.9,0.1-2.1,0.7-2.7,1.4c-3.7,4.6-7.2,9.4-10.9,14.2
						c-0.9-1.1-1.5-1.9-2.3-2.8c-0.7-0.8-1.3-2-2.1-2.1c-2.7-0.3-5.5-0.1-8.6-0.1c3,3.9,5.7,7.4,8.4,11
						c-5.5,7.1-10.9,14.2-16.6,21.7c2.7,0,4.9-0.1,7.2,0c1.4,0.1,2.3-0.5,3.1-1.6c3.5-4.7,7.2-9.4,10.8-14.1
						c0.7,0.8,1.2,1.5,1.8,2.2c0.8,1,1.5,2.6,2.4,2.7c2.8,0.4,5.6,0.1,8.8,0.1c-3-3.9-5.6-7.4-8.4-11
						C3319.1,754.5,3324.5,747.4,3330.2,740L3330.2,740L3330.2,740z M3316.8,771.6c-2.7-2.2-5.1-4.2-7.7-6.3
						c-4.6,4.8-9.2,9.6-14,14.5c3.5-5.7,6.8-11.3,10.2-16.8c0.7-1.1,0.8-2,0.1-3.2c-1.3-2.5-2.5-5.1-3.5-7.9
						c2.4,1.9,4.7,3.8,7.2,5.8c4.7-4.9,9.4-9.8,14.1-14.7c-3.4,5.6-6.7,11.1-10.2,16.6c-0.8,1.2-1,2.2-0.2,3.6
						C3314.3,765.9,3315.4,768.7,3316.8,771.6z M3355.6,750.1c-6.5,0-11.7,5-11.7,11.4s5.1,11.4,11.6,11.4c6.6,0,11.5-4.8,11.5-11.2
						C3367.6,756.2,3362.5,750.1,3355.6,750.1z M3355.5,766.7c-2.6,0-5.2-2.5-5.2-5.1c0-2.7,2.4-5,5.1-5c2.8,0,5.1,2.3,5.2,5
						C3360.6,764.1,3358.1,766.6,3355.5,766.7z M3325.3,750.6c-0.5,0-1.2,0.1-1.4,0.5c-1.4,1.8-2.7,3.8-4.3,6h9v15.3h7.4v-15.5h7.6
						v-6.4C3337.4,750.6,3331.4,750.6,3325.3,750.6L3325.3,750.6L3325.3,750.6z"/>
				</g>
			</g>
		</g>
		<g id="svg_47_1_">
			<path id="svg_48_1_" class="st5" d="M2497.6,752.9c-4.3,0-6.6,2.2-7.6,2.9V754h-6v24h7v-13.6c0-3.4,1.7-5.2,4.5-5.2
				c2.9,0,4.5,1.9,4.5,5.2V778h7v-15.4C2507,756.7,2502.7,752.9,2497.6,752.9z"/>
			<path id="svg_49_1_" class="st5" d="M2564.6,752.9c-7.4,0-13,5.7-13,12.7s5.6,12.7,13,12.7s13-5.7,13-12.7
				S2572,752.9,2564.6,752.9z M2564.6,771.8c-3.5,0-6-2.8-6-6.1c0-3.4,2.5-6.1,6-6.1s6,2.8,6,6.1
				C2570.7,769,2568.1,771.8,2564.6,771.8z"/>
			<path id="svg_50_1_" class="st5" d="M2466.6,752.9c-7.4,0-13,5.7-13,12.7s5.6,12.7,13,12.7s13-5.7,13-12.7
				C2479.7,758.6,2474,752.9,2466.6,752.9z M2466.7,771.8c-3.5,0-6-2.8-6-6.1c0-3.4,2.5-6.1,6-6.1s6,2.8,6,6.1
				S2470.2,771.8,2466.7,771.8z"/>
			<rect id="svg_51_1_" x="2612" y="754" class="st5" width="7" height="24"/>
			<rect id="svg_52_1_" x="2612" y="745" class="st5" width="7" height="6"/>
			<rect id="svg_53_1_" x="2625" y="745" class="st5" width="7" height="33"/>
			<path id="svg_54_1_" class="st5" d="M2596.4,752.9c-4.9,0-7.4,2.2-7.4,2.5V745h-7v33h7v-0.2l-0.1-1.9c0.5,0.4,2.6,2.4,7.3,2.4
				c6.2,0,11.9-5.5,11.9-12.7S2602.8,752.9,2596.4,752.9L2596.4,752.9L2596.4,752.9z M2594.6,771.7c-3.5,0-6.1-2.7-6.1-6.1
				c0-3.5,2.7-6.1,6.1-6.1c3.5,0,6.1,2.7,6.1,6.1C2600.7,769.1,2598,771.7,2594.6,771.7z"/>
			<polygon id="svg_55_1_" class="st5" points="2455.8,754 2447.4,754 2436.6,767.6 2431.9,763 2443.9,748 2435.6,748 2427.4,758.6 
				2422.9,754 2412.9,754 2423,764 2411.6,778 2420,778 2427.5,768.3 2432.2,773.3 2421.4,787 2429.8,787 2436.7,778 2449.6,791 
				2459.7,791 2441.2,772.4 			"/>
			<polygon id="svg_56_1_" class="st5" points="2388,778 2410,778 2410,772 2395,772 2395,764 2409,764 2409,758 2395,758 2395,751 
				2410,751 2410,745 2388,745 			"/>
			<polygon id="svg_57_1_" class="st5" points="2530.2,769 2530,769 2524.4,745 2513,745 2513,778 2520,778 2520,753 2520,753 
				2526,778 2533.9,778 2540.1,753 2540,753 2540,778 2547,778 2547,745 2535.9,745 			"/>
		</g>
		<path id="svg_60_1_" class="st3" d="M2835,762.3c4.8,0,8.3-3.4,8.3-8.3c0-4.5-3.5-8.1-8.4-8.1c-4.5,0-8.2,3.3-8.2,8.2
			C2826.7,759,2830.4,762.3,2835,762.3z M2835.2,749.6c2.7,0,3.7,2.5,3.7,4.3c0,2.8-1.3,4.9-3.6,4.9c-2.8,0-4-1.9-4-4.9
			C2831.2,751.9,2832,749.6,2835.2,749.6L2835.2,749.6L2835.2,749.6z"/>
		<path id="svg_61_1_" class="st3" d="M2790.6,761.8l-0.1,0.2h12.5c0.1,0-0.1-0.3-0.1-0.3s0-3.5,0-3.6s0,0.3-0.1,0.3
			c-0.8,0.2-3.2,0.6-3.2,0.6h-4.2c0,0-0.1-0.3-0.1-0.5s0-2.1,0-2.3s0.2-0.2,0.2-0.2h7.5c0.1,0,0-0.1,0-0.1v-3.3c0,0,0.1-0.1,0-0.1
			h-7.5c0,0-0.1,0-0.1-0.2s0-1.9,0-2.1s0.1-0.2,0.1-0.2h4.3c0,0,2.2,0,3.2,0.2c0.1,0,0.1,0,0.1,0v-3.6c0,0,0.1-0.1,0-0.1
			s-12.4,0-12.5,0s0.1,0.1,0.1,0.1c0.1,0.2,0.4,1,0.4,2.4v10.1C2791,760.4,2790.7,761.7,2790.6,761.8z"/>
		<path id="svg_62_1_" class="st3" d="M2844.8,761.8c0,0-0.1,0.2,0,0.2h0.1h3.7h0.1c0.1,0,0-0.2,0-0.2c-0.1-0.1-0.1-1-0.2-2.7
			c0,0,0-5.7,0-5.9l0,0l5.5,8.6v0.1v0.1h4.3l0.2-0.1l0.2-0.1c0,0,0-11.3,0-12.8c0-2.1,0-2.1,0.1-2.1c0,0-0.1,0.2-0.2,0.2h-0.1h-3.9
			h-0.1c-0.1,0,0-0.2,0-0.2c0.1,0.1,0.3,0.3,0.3,2.3c0,1.1,0,5.9,0,5.9l0,0l-5.3-8.5c0,0,0,0.3,0,0.2v0.3c-0.2,0-4.8,0-4.8,0
			c-0.1,0,0-0.2,0-0.2c0.1,0.2,0.2-0.1,0.2,2.7v9.4C2845,761.2,2845,761.6,2844.8,761.8z"/>
		<path id="svg_63_1_" class="st3" d="M2803.8,746.5C2803.9,746.5,2803.9,746.6,2803.8,746.5c0.2,0.1,0.2,0.2,0.4,0.3
			c0.8,0.7,2.2,2,2.2,2l3.9,4l0,0c0,0,0,0,0,0.1c0,0-0.1,0.1-0.2,0.3c-0.3,0.5-4.4,6.4-4.4,6.4s-0.8,1-1,1.4
			c-0.4,0.6-0.7,0.8-0.7,0.8s0,0.1,0,0.2c0,0,0,0.1,0.1,0.1h0.1c0,0,4.4-0.1,4.6-0.1c0,0,0,0,0-0.1s0,0,0,0c0.2-0.2,4.1-5.9,4.2-6
			c0.1-0.1,0.1-0.1,0.1,0l2.3,2.3c0.1,0,0.1,0.1,0,0.1c0,0-3.6,5.2-4.8,6.9c-0.2,0.2-0.8,1.1-1.3,1.5v0.2v0.1c0,0,4.5,0,4.7,0v-0.1
			v-0.1c0.2-0.2,3.9-5.7,3.9-5.7c0.1-0.1,0.1-0.2,0.2,0l7.5,7.7v0.1v0.1h6c0,0,0-0.1,0-0.2v-0.1c0,0,0-0.1-0.1-0.1
			c-1.2-1.1-1.6-1.5-2.5-2.5c0,0-8.4-8.7-8.5-8.8v-0.1c0,0,6.2-9,6.5-9.3c0.1-0.1,0.6-0.9,0.8-1c0.2-0.3,0.4-0.4,0.4-0.5v0.2
			l-0.1,0.2h-4.6v-0.3v-0.1l-5.6,8c-0.1,0.1-0.1,0-0.1,0l-2.3-2.4c0,0,0,0,0-0.1l5-7.2c0.3-0.5,0.6-0.8,0.9-1.1l0.1-0.1
			c0,0,0,0,0-0.1l0,0c0,0-4.5,0-4.6,0l0,0l0,0c-0.2,0.2-3.9,5.7-3.9,5.7s0,0-0.1,0c-0.1-0.1-2.8-2.8-2.8-2.8v0.3v0.3h-6.1v-0.2v-0.1
			C2803.8,746.7,2803.8,746.5,2803.8,746.5L2803.8,746.5L2803.8,746.5z"/>
		<g id="svg_64_1_">
			<path id="svg_65_1_" class="st5" d="M3193,761.7c0-9.6,12-17.3,26.7-17.3c14.8,0,26.7,7.8,26.7,17.3s-12,17.3-26.7,17.3
				S3193,771.3,3193,761.7L3193,761.7z M3219.8,783.8c17.6,0,31.8-9.9,31.8-22.2s-14.2-22.2-31.8-22.2s-31.8,9.9-31.8,22.2
				C3188,773.9,3202.2,783.8,3219.8,783.8L3219.8,783.8z"/>
			<path id="svg_66_1_" class="st5" d="M3209.1,751.7l-0.2,3.1c-1.3-0.3-2.7-1.1-4.1-0.4c-1,0.5-1,1.7-0.7,2.5
				c0.8,1.4,2.7,1.2,4.2,1.2c0,0.9,0,1.8,0,2.7c-0.9,0-1.9,0-2.8,0.3c-0.4,0.1-1,0.4-1.2,0.6c-0.3,0.3-0.5,0.8-0.5,1.2
				s0,0.8,0.2,1.1c1.1,1.5,3.3,0.7,4.7,0.4l0.4,3.2c-1.8,0.8-4.1,1.1-6.2,0.5c-0.6-0.2-1.2-0.4-1.7-0.8c-0.7-0.6-1.3-1.3-1.6-2.1
				c-0.4-0.9-0.4-1.9-0.2-3c0.3-1.3,1.4-2.3,2.6-2.8c-1.2-0.7-1.9-1.5-2.3-2.6c-0.2-0.8-0.2-1.6,0.1-2.4c0.1-0.5,0.2-0.8,0.6-1.4
				c0.5-0.8,1.7-1.5,2.7-1.8c1.4-0.4,3.1-0.4,4.5,0C3208.3,751.3,3208.5,751.4,3209.1,751.7L3209.1,751.7z M3238.1,754.8
				c-2-0.2-4.8-0.5-6,1.8c-1.4,2.6-1.4,6.5-0.3,9.3c0.6,1.2,1.8,2,3,2.3c2.2,0.4,4.7,0.1,6-1.9c1.4-2.7,1.5-6.7,0.1-9.4
				C3240.4,755.7,3239.3,754.9,3238.1,754.8L3238.1,754.8z M3238.1,759c0.5,1.4,0.5,3.7,0,5c-0.5,1-1.3,1.2-2.1,1
				c-0.4-0.2-0.8-0.6-1-1.2c-0.4-1.4-0.4-3.7,0.1-5c0.4-1.1,1.4-1,2.1-0.9C3237.6,758,3237.9,758.4,3238.1,759L3238.1,759z
				 M3212.7,755c-1.6,0.8-2.3,2.3-2.2,4.1c0,2.8,3.4,2.9,5.1,4.6c0.3,0.5,0,1.2-0.5,1.3c-1.4,0.7-3.2-0.4-4.5-1.1l0.2,3.4
				c1.9,0.9,4.9,1.3,6.8,0.1c1.3-0.8,2-2.1,2-3.5c0-3.1-3.4-3.4-5.4-4.7c-0.3-0.1-0.2-0.6-0.2-0.8c0.1-0.3,0.2-0.5,0.5-0.6
				c1.7-0.5,3.2,0.3,4.5,1l-0.1-3.3C3217.1,754.8,3214.7,754.2,3212.7,755L3212.7,755L3212.7,755L3212.7,755z M3223.1,755
				c-1.6,0.8-2.3,2.3-2.2,4.1c0,2.8,3.4,2.9,5.1,4.6c0.3,0.5,0,1.2-0.5,1.3c-1.4,0.7-3.1-0.4-4.4-1.1l0.1,3.4
				c1.9,0.9,4.9,1.3,6.8,0.1c1.3-0.8,2-2.1,2-3.5c0-3.1-3.4-3.5-5.4-4.7c-0.2-0.2-0.2-0.6-0.2-0.8c0.1-0.2,0.3-0.5,0.5-0.6
				c1.7-0.5,3.1,0.3,4.4,1l-0.1-3.3C3227.5,754.8,3225.1,754.2,3223.1,755L3223.1,755z"/>
		</g>
		<g id="svg_67_1_">
			<g id="svg_68_1_">
				<g id="svg_69_1_">
					<path id="svg_70_1_" class="st3" d="M3430.2,740c-2.8,0-5.1-0.1-7.4,0.1c-0.9,0.1-2.1,0.7-2.7,1.4c-3.7,4.6-7.2,9.4-10.9,14.2
						c-0.9-1.1-1.5-1.9-2.3-2.8c-0.7-0.8-1.3-2-2.1-2.1c-2.7-0.3-5.5-0.1-8.6-0.1c3,3.9,5.7,7.4,8.4,11
						c-5.5,7.1-10.9,14.2-16.6,21.7c2.7,0,4.9-0.1,7.2,0c1.4,0.1,2.3-0.5,3.1-1.6c3.5-4.7,7.2-9.4,10.8-14.1
						c0.7,0.8,1.2,1.5,1.8,2.2c0.8,1,1.5,2.6,2.4,2.7c2.8,0.4,5.6,0.1,8.8,0.1c-3-3.9-5.6-7.4-8.4-11
						C3419.1,754.5,3424.5,747.4,3430.2,740L3430.2,740L3430.2,740z M3416.8,771.6c-2.7-2.2-5.1-4.2-7.7-6.3
						c-4.6,4.8-9.2,9.6-14,14.5c3.5-5.7,6.8-11.3,10.2-16.8c0.7-1.1,0.8-2,0.1-3.2c-1.3-2.5-2.5-5.1-3.5-7.9
						c2.4,1.9,4.7,3.8,7.2,5.8c4.7-4.9,9.4-9.8,14.1-14.7c-3.4,5.6-6.7,11.1-10.2,16.6c-0.8,1.2-1,2.2-0.2,3.6
						C3414.3,765.9,3415.4,768.7,3416.8,771.6z M3455.6,750.1c-6.5,0-11.7,5-11.7,11.4s5.1,11.4,11.6,11.4c6.6,0,11.5-4.8,11.5-11.2
						C3467.6,756.2,3462.5,750.1,3455.6,750.1z M3455.5,766.7c-2.6,0-5.2-2.5-5.2-5.1c0-2.7,2.4-5,5.1-5c2.8,0,5.1,2.3,5.2,5
						C3460.6,764.1,3458.1,766.6,3455.5,766.7z M3425.3,750.6c-0.5,0-1.2,0.1-1.4,0.5c-1.4,1.8-2.7,3.8-4.3,6h9v15.3h7.4v-15.5h7.6
						v-6.4C3437.4,750.6,3431.4,750.6,3425.3,750.6L3425.3,750.6L3425.3,750.6z"/>
				</g>
			</g>
		</g>
		
			<text id="svg_4091_1_" transform="matrix(0.8946 0 0 1 3307.2266 786.2109)" style="fill:#BFBFBF; font-family:'TimesNewRomanPSMT'; font-size:12.6346px;">E N E R G Y</text>
		
			<text id="svg_34_1_" transform="matrix(0.8946 0 0 1 3407.2295 786.2168)" class="st3" style="font-family:'TimesNewRomanPSMT'; font-size:12.6346px;">E N E R G Y</text>
		<desc  id="desc167" transform="matrix(0.46913118249682384,0,0,0.46913118249682384,334.6781827518072,-452.3925780645118) ">
			Created with Sketch.</desc>
	</g>
</g>
<g id="g170" transform="translate(0,4.735354)">
	<path id="path172" inkscape:connector-curvature="0" class="st4" d="M2049.3,384.8h3.6v1.2c0.4-0.3,1.7-1.6,4-1.6
		c2.7,0,4.9,2,4.9,5.2v8.4h-3.8v-7.2c0-1.8-0.9-2.8-2.4-2.8s-2.4,1-2.4,2.8v7.2h-3.8L2049.3,384.8L2049.3,384.8L2049.3,384.8z
		 M2036.9,391.4c0-1.8,1.4-3.3,3.2-3.3c1.9,0,3.2,1.5,3.2,3.3s-1.4,3.3-3.2,3.3C2038.3,394.7,2036.9,393.2,2036.9,391.4z
		 M2033.1,391.4c0,3.8,3,6.9,7,6.9s7-3.1,7-6.9s-3-6.9-7-6.9C2036.2,384.5,2033.1,387.6,2033.1,391.4z M2015,398l4.1-5.2l2.5,2.6
		l-5.8,7.2h4.5l3.7-4.8l7,7.1h5.5l-10-10.1l7.9-10h-4.5l-5.8,7.5l-2.5-2.5l6.5-8.2h-4.5l-4.4,5.7l-2.4-2.5h-5.4l5.4,5.5l-6.1,7.7
		L2015,398L2015,398z M1997.7,380h11.8v3.3h-7.8v3.7h7.5v3.2h-7.5v4.3h7.8v3.5h-11.8V380z"/>
</g>
<g id="g176" transform="translate(-0.41161165,4.235354)">
	<path id="path178" inkscape:connector-curvature="0" class="st5" d="M2149.6,385.3h3.6v1.2c0.4-0.3,1.7-1.6,4-1.6
		c2.7,0,4.9,2,4.9,5.2v8.3h-3.8v-7.2c0-1.8-0.9-2.8-2.4-2.8s-2.4,1-2.4,2.8v7.2h-3.8L2149.6,385.3L2149.6,385.3L2149.6,385.3z
		 M2137.2,391.9c0-1.8,1.4-3.3,3.2-3.3c1.9,0,3.2,1.5,3.2,3.3s-1.4,3.3-3.2,3.3C2138.6,395.2,2137.2,393.7,2137.2,391.9z
		 M2133.4,391.9c0,3.8,3,6.9,7,6.9s7-3.1,7-6.9s-3-6.9-7-6.9C2136.5,385,2133.4,388.1,2133.4,391.9z M2115.3,398.5l4.1-5.2l2.5,2.6
		l-5.8,7.2h4.5l3.7-4.8l7,7.1h5.5l-10-10.1l7.9-10h-4.5l-5.8,7.5l-2.5-2.5l6.5-8.2h-4.5l-4.4,5.7l-2.4-2.5h-5.4l5.4,5.5l-6.1,7.7
		L2115.3,398.5L2115.3,398.5z M2098,380.5h11.8v3.3h-7.8v3.7h7.5v3.2h-7.5v4.3h7.8v3.4H2098V380.5z"/>
</g>
<g id="g4303">
	<path id="path4305" class="st4" d="M2870.3,378.8c-2.3-1.3-4.6-2.4-7-3.4c0.2-0.9,0.5-1.7,0.8-2.6c-1.5,0.3-3,0.7-4.5,1.2
		c-2.7-0.9-5.5-1.5-8.4-2c1.5,1.1,2.9,2.4,4.3,3.6c-1.5,0.7-3,1.6-4.4,2.5c2.1-0.3,4.2-0.5,6.3-0.5c1.4,1.5,2.8,3,4.1,4.7
		c0.3-1.5,0.7-3.1,1.1-4.6C2865.2,377.9,2867.7,378.3,2870.3,378.8"/>
	<path id="path4307" class="st4" d="M2880.4,390.1c1.8,0.5,3.6,1.2,5.3,1.9c-1.8-2.2-3.8-4.3-5.9-6.3c-0.3-1.6-0.7-3.1-1.2-4.5l0,0
		c-0.6,0.7-1.2,1.3-1.9,2c-2-1.6-4.2-3.1-6.5-4.4c1.7,1.9,3.3,4,4.7,6.1c-1.1,1.1-2.3,2.2-3.4,3.2c2.1,0.3,4.1,0.7,6.1,1.2
		c0.2,0.3,0.4,0.7,0.5,1c0.8,1.6,1.5,3.2,2.2,4.8c0.1-1.3,0.1-2.5,0-3.8C2880.4,390.9,2880.4,390.5,2880.4,390.1"/>
	<path id="path4309" class="st4" d="M2868.1,392.5c-0.2-0.3-0.3-0.6-0.5-0.9c1.4-1.1,2.7-2.3,4-3.4c-2.1-0.3-4.2-0.5-6.3-0.6
		c-1.2-1.8-2.4-3.6-3.7-5.2c-0.4,1.7-0.7,3.4-1,5.2c-2.3,0.1-4.6,0.3-7,0.6c2.2,0.9,4.3,2,6.4,3.1c-0.3,2.2-0.5,4.3-0.7,6.6
		c1.8-1.2,3.6-2.5,5.3-3.8c2,1.3,4,2.6,5.9,4C2869.8,396.1,2869,394.3,2868.1,392.5"/>
	<path id="path4311" class="st4" d="M2796,396.3h3.2v19.8h-3.2v-13.6V396.3z M2863.2,402.8h3.2v13.4h-3.2v-6.9V402.8z M2882.4,396.3
		h3.2v19.8h-3.2v-13.8V396.3z M2801.8,403.3c0.3-0.1,0.7-0.2,1.2-0.3c0.4-0.1,0.9-0.2,1.5-0.3c0.5-0.1,1.1-0.2,1.6-0.2
		c0.6-0.1,1.1-0.1,1.7-0.1c0.9,0,1.7,0.1,2.5,0.3c0.8,0.2,1.4,0.5,1.8,0.9c0.6-0.3,1.2-0.5,2-0.8c0.8-0.2,1.7-0.4,2.7-0.4
		c1.7,0,3,0.4,3.7,1.2c0.8,0.8,1.2,1.9,1.2,3.4v9.1h-3.2v-8.5c0-0.8-0.2-1.3-0.6-1.7c-0.4-0.4-1-0.5-2-0.5c-0.5,0-1,0.1-1.5,0.2
		s-0.9,0.2-1.2,0.3c0.1,0.2,0.1,0.5,0.1,0.8s0,0.6,0,0.9v8.5h-3.2v-8.4c0-0.9-0.2-1.5-0.6-1.8c-0.4-0.3-1.1-0.5-2-0.5
		c-0.5,0-0.9,0-1.4,0.1c-0.4,0.1-0.8,0.1-1.1,0.2v10.4h-3.2V403.3z M2824.2,403.8c0.7-0.3,1.6-0.6,2.7-0.9c1-0.3,2.2-0.4,3.5-0.4
		c1.2,0,2.2,0.2,3,0.6c0.9,0.4,1.6,0.9,2.1,1.5c0.6,0.6,1,1.4,1.3,2.2c0.3,0.8,0.4,1.7,0.4,2.6c0,1.2-0.2,2.2-0.5,3.1
		c-0.4,0.9-0.8,1.7-1.5,2.3c-0.6,0.6-1.3,1.1-2.2,1.4c-0.8,0.3-1.7,0.5-2.6,0.5c-0.7,0-1.2-0.1-1.7-0.2s-0.9-0.2-1.3-0.4v6.5h-3.2
		V403.8z M2830.2,405.5c-0.5,0-1,0-1.5,0.2c-0.5,0.1-0.9,0.2-1.2,0.3v7.1c0.3,0.1,0.7,0.3,1.1,0.3c0.4,0.1,0.9,0.1,1.5,0.1
		c1.2,0,2.1-0.3,2.8-1s1.1-1.7,1.1-3.1c0-1.2-0.3-2.2-1-2.9C2832.2,405.9,2831.3,405.5,2830.2,405.5 M2850.8,415.4
		c-0.3,0.1-0.6,0.3-0.9,0.4c-0.3,0.1-0.7,0.3-1.1,0.4c-0.4,0.1-0.9,0.2-1.4,0.3c-0.5,0.1-1.1,0.1-1.7,0.1c-2.2,0-3.9-0.6-5.1-1.8
		c-1.2-1.2-1.8-2.9-1.8-5.1c0-1.1,0.2-2.1,0.5-3s0.8-1.6,1.4-2.2c0.6-0.6,1.3-1.1,2.2-1.4s1.8-0.5,2.8-0.5c1.1,0,2,0.2,2.8,0.5
		s1.4,0.8,1.9,1.4s0.9,1.3,1.1,2.1c0.2,0.8,0.3,1.6,0.3,2.5c0,0.3,0,0.6,0,0.8c0,0.2,0,0.5,0,0.6h-9.6c0,0.4,0.1,0.9,0.3,1.3
		c0.1,0.4,0.4,0.8,0.7,1.1c0.3,0.3,0.8,0.6,1.3,0.8c0.5,0.2,1.2,0.3,2,0.3c1,0,1.9-0.1,2.7-0.4s1.4-0.5,1.9-0.7L2850.8,415.4z
		 M2845.5,405c-0.9,0-1.7,0.3-2.3,0.9s-0.9,1.4-1,2.4h6.4c0-0.9-0.3-1.7-0.8-2.3C2847.3,405.3,2846.5,405,2845.5,405 M2861.8,405.6
		c-0.2,0-0.6-0.1-0.9-0.1c-0.4,0-0.8-0.1-1.3-0.1s-1,0-1.5,0.1s-0.9,0.1-1.2,0.2v10.5h-3.2v-12.8c0.7-0.3,1.5-0.5,2.4-0.7
		s2-0.3,3.1-0.3c0.6,0,1.1,0,1.5,0.1c0.5,0.1,0.8,0.1,1.1,0.2L2861.8,405.6L2861.8,405.6z M2879.9,415.6c-0.6,0.2-1.4,0.4-2.4,0.6
		s-2.1,0.3-3.5,0.3c-1,0-1.9-0.1-2.6-0.3c-0.7-0.2-1.3-0.5-1.7-0.8c-0.4-0.4-0.8-0.8-1-1.3s-0.3-1.1-0.3-1.7c0-1.3,0.5-2.3,1.4-3.1
		c0.9-0.8,2.4-1.2,4.5-1.2c0.4,0,0.8,0,1.2,0s0.8,0.1,1,0.1v-0.6c0-0.5-0.1-0.9-0.2-1.2c-0.2-0.3-0.4-0.5-0.6-0.7
		c-0.3-0.2-0.6-0.3-0.9-0.3c-0.4-0.1-0.7-0.1-1.1-0.1c-0.8,0-1.6,0.1-2.4,0.3c-0.8,0.2-1.4,0.4-1.8,0.5v-2.7
		c0.2-0.1,0.5-0.2,0.8-0.3c0.3-0.1,0.7-0.2,1.1-0.3c0.4-0.1,0.9-0.2,1.4-0.2c0.5-0.1,1-0.1,1.5-0.1c2,0,3.4,0.5,4.2,1.4
		s1.3,2.2,1.3,3.9v7.8L2879.9,415.6L2879.9,415.6z M2876.7,410.4c-0.2,0-0.5-0.1-0.9-0.1s-0.8,0-1.3,0c-0.9,0-1.6,0.2-2.1,0.5
		s-0.7,0.8-0.7,1.4s0.2,1,0.6,1.3c0.4,0.3,1,0.5,2,0.5c0.5,0,1,0,1.4-0.1s0.7-0.1,1-0.2V410.4z"/>
</g>
<g id="g4313" transform="translate(-0.26516502,0)">
	<path id="path4315" inkscape:connector-curvature="0" class="st5" d="M2970.7,378.8c-2.3-1.3-4.6-2.4-7-3.4
		c0.2-0.9,0.5-1.7,0.8-2.6c-1.5,0.3-3,0.7-4.5,1.2c-2.7-0.9-5.5-1.5-8.4-2c1.5,1.1,2.9,2.4,4.3,3.6c-1.5,0.7-3,1.6-4.4,2.5
		c2.1-0.3,4.2-0.5,6.3-0.5c1.4,1.5,2.8,3,4.1,4.7c0.3-1.5,0.7-3.1,1.1-4.6C2965.6,377.9,2968.1,378.3,2970.7,378.8"/>
	<path id="path4317" inkscape:connector-curvature="0" class="st5" d="M2980.8,390.1c1.8,0.5,3.6,1.2,5.3,1.9
		c-1.8-2.2-3.8-4.3-5.9-6.3c-0.3-1.6-0.7-3.1-1.2-4.5l0,0c-0.6,0.7-1.2,1.3-1.9,2c-2-1.6-4.2-3.1-6.5-4.4c1.7,1.9,3.3,4,4.7,6.1
		c-1.1,1.1-2.3,2.2-3.4,3.2c2.1,0.3,4.1,0.7,6.1,1.2c0.2,0.3,0.4,0.7,0.5,1c0.8,1.6,1.5,3.2,2.2,4.8c0.1-1.3,0.1-2.5,0-3.8
		C2980.8,390.9,2980.8,390.5,2980.8,390.1"/>
	<path id="path4319" inkscape:connector-curvature="0" class="st5" d="M2968.5,392.5c-0.2-0.3-0.3-0.6-0.5-0.9
		c1.4-1.1,2.7-2.3,4-3.4c-2.1-0.3-4.2-0.5-6.3-0.6c-1.2-1.8-2.4-3.6-3.7-5.2c-0.4,1.7-0.7,3.4-1,5.2c-2.3,0.1-4.6,0.3-7,0.6
		c2.2,0.9,4.3,2,6.4,3.1c-0.3,2.2-0.5,4.3-0.7,6.6c1.8-1.2,3.6-2.5,5.3-3.8c2,1.3,4,2.6,5.9,4
		C2970.2,396.1,2969.4,394.3,2968.5,392.5"/>
	<path id="path4321" inkscape:connector-curvature="0" class="st5" d="M2896.4,396.3h3.2v19.8h-3.2v-13.6V396.3L2896.4,396.3z
		 M2963.6,402.8h3.2v13.4h-3.2v-6.9V402.8z M2982.8,396.3h3.2v19.8h-3.2v-13.8V396.3z M2902.2,403.3c0.3-0.1,0.7-0.2,1.2-0.3
		c0.4-0.1,0.9-0.2,1.5-0.3c0.6-0.1,1.1-0.2,1.6-0.2c0.6-0.1,1.1-0.1,1.7-0.1c0.9,0,1.7,0.1,2.5,0.3c0.8,0.2,1.4,0.5,1.8,0.9
		c0.6-0.3,1.2-0.5,2-0.8c0.8-0.2,1.7-0.4,2.7-0.4c1.7,0,3,0.4,3.7,1.2c0.8,0.8,1.2,1.9,1.2,3.4v9.1h-3.2v-8.5c0-0.8-0.2-1.3-0.6-1.7
		c-0.4-0.4-1-0.5-2-0.5c-0.5,0-1,0.1-1.5,0.2s-0.9,0.2-1.2,0.3c0.1,0.2,0.1,0.5,0.1,0.8s0,0.6,0,0.9v8.5h-3.2v-8.4
		c0-0.9-0.2-1.5-0.6-1.8c-0.4-0.3-1.1-0.5-2-0.5c-0.5,0-0.9,0-1.4,0.1c-0.4,0.1-0.8,0.1-1.1,0.2v10.4h-3.2V403.3L2902.2,403.3z
		 M2924.6,403.8c0.7-0.3,1.6-0.6,2.7-0.9c1-0.3,2.2-0.4,3.5-0.4c1.2,0,2.2,0.2,3,0.6c0.9,0.4,1.6,0.9,2.1,1.5c0.6,0.6,1,1.4,1.3,2.2
		c0.3,0.8,0.4,1.7,0.4,2.6c0,1.2-0.2,2.2-0.5,3.1c-0.4,0.9-0.8,1.7-1.5,2.3c-0.6,0.6-1.3,1.1-2.2,1.4c-0.8,0.3-1.7,0.5-2.6,0.5
		c-0.7,0-1.2-0.1-1.7-0.2s-0.9-0.2-1.3-0.4v6.5h-3.2V403.8L2924.6,403.8z M2930.6,405.5c-0.5,0-1,0-1.5,0.2
		c-0.5,0.1-0.9,0.2-1.2,0.3v7.1c0.3,0.1,0.7,0.3,1.1,0.3c0.4,0.1,0.9,0.1,1.5,0.1c1.2,0,2.1-0.3,2.8-1s1.1-1.7,1.1-3.1
		c0-1.2-0.3-2.2-1-2.9C2932.6,405.9,2931.7,405.5,2930.6,405.5 M2951.2,415.4c-0.3,0.1-0.6,0.3-0.9,0.4c-0.3,0.1-0.7,0.3-1.1,0.4
		c-0.4,0.1-0.9,0.2-1.4,0.3c-0.5,0.1-1.1,0.1-1.7,0.1c-2.2,0-3.9-0.6-5.1-1.8c-1.2-1.2-1.8-2.9-1.8-5.1c0-1.1,0.2-2.1,0.5-3
		s0.8-1.6,1.4-2.2c0.6-0.6,1.3-1.1,2.2-1.4s1.8-0.5,2.8-0.5c1.1,0,2,0.2,2.8,0.5s1.4,0.8,1.9,1.4s0.9,1.3,1.1,2.1
		c0.2,0.8,0.3,1.6,0.3,2.5c0,0.3,0,0.6,0,0.8c0,0.2,0,0.5,0,0.6h-9.6c0,0.4,0.1,0.9,0.3,1.3c0.1,0.4,0.4,0.8,0.7,1.1
		c0.3,0.3,0.8,0.6,1.3,0.8c0.5,0.2,1.2,0.3,2,0.3c1,0,1.9-0.1,2.7-0.4s1.4-0.5,1.9-0.7L2951.2,415.4L2951.2,415.4z M2945.9,405
		c-0.9,0-1.7,0.3-2.3,0.9s-0.9,1.4-1,2.4h6.4c0-0.9-0.3-1.7-0.8-2.3C2947.7,405.3,2946.9,405,2945.9,405 M2962.2,405.6
		c-0.2,0-0.6-0.1-0.9-0.1c-0.4,0-0.8-0.1-1.3-0.1s-1,0-1.5,0.1s-0.9,0.1-1.2,0.2v10.5h-3.2v-12.8c0.7-0.3,1.5-0.5,2.4-0.7
		s2-0.3,3.1-0.3c0.6,0,1.1,0,1.5,0.1c0.5,0.1,0.8,0.1,1.1,0.2L2962.2,405.6L2962.2,405.6L2962.2,405.6z M2980.3,415.6
		c-0.6,0.2-1.4,0.4-2.4,0.6s-2.1,0.3-3.5,0.3c-1,0-1.9-0.1-2.6-0.3c-0.7-0.2-1.3-0.5-1.7-0.8c-0.4-0.4-0.8-0.8-1-1.3
		s-0.3-1.1-0.3-1.7c0-1.3,0.5-2.3,1.4-3.1c0.9-0.8,2.4-1.2,4.5-1.2c0.4,0,0.8,0,1.2,0s0.8,0.1,1,0.1v-0.6c0-0.5-0.1-0.9-0.2-1.2
		c-0.2-0.3-0.4-0.5-0.6-0.7c-0.3-0.2-0.6-0.3-0.9-0.3c-0.4-0.1-0.7-0.1-1.1-0.1c-0.8,0-1.6,0.1-2.4,0.3c-0.8,0.2-1.4,0.4-1.8,0.5
		v-2.7c0.2-0.1,0.5-0.2,0.8-0.3c0.3-0.1,0.7-0.2,1.1-0.3c0.4-0.1,0.9-0.2,1.4-0.2c0.5-0.1,1-0.1,1.5-0.1c2,0,3.4,0.5,4.2,1.4
		s1.3,2.2,1.3,3.9v7.8L2980.3,415.6L2980.3,415.6z M2977.1,410.4c-0.2,0-0.5-0.1-0.9-0.1s-0.8,0-1.3,0c-0.9,0-1.6,0.2-2.1,0.5
		s-0.7,0.8-0.7,1.4s0.2,1,0.6,1.3c0.4,0.3,1,0.5,2,0.5c0.5,0,1,0,1.4-0.1s0.7-0.1,1-0.2V410.4L2977.1,410.4z"/>
</g>
<text transform="matrix(1 0 0 1 789.6667 405.7997)" class="st6" style="font-family:'OpenSans-Bold'; font-size:36px;">OLTIVA</text>
<text transform="matrix(1 0 0 1 1089.0002 405.7997)" class="st6" style="font-family:'OpenSans-Bold'; font-size:36px;">OLTIVA</text>
<text transform="matrix(1 0 0 1 1395.0002 412.2997)" class="st6" style="font-family:'OpenSans-Bold'; font-size:36px;">OLTIVA</text>
<text transform="matrix(1 0 0 1 1695.0002 411.9997)" class="st6" style="font-family:'OpenSans-Bold'; font-size:36px;">OLTIVA</text>
</svg>
